<?xml version="1.0" encoding="UTF-8"?>
<svg version="1.1" xmlns="http://www.w3.org/2000/svg" width="1024" height="1024">
<path d="M0 0 C337.92 0 675.84 0 1024 0 C1024 337.92 1024 675.84 1024 1024 C686.08 1024 348.16 1024 0 1024 C0 686.08 0 348.16 0 0 Z " fill="#FBFBFB" transform="translate(0,0)"/>
<path d="M0 0 C19.8 0 39.6 0 60 0 C62.26875 6.39375 64.5375 12.7875 66.875 19.375 C79.22894096 54.14392939 91.76565621 88.84694758 104.32397461 123.54248047 C110.70464522 141.17250731 117.0650785 158.80981475 123.42315674 176.44799805 C128.10013351 189.42247351 132.77776095 202.39668859 137.4765625 215.36328125 C137.8253093 216.32573257 138.17405609 217.2881839 138.53337097 218.27980042 C138.8774147 219.22927048 139.22145844 220.17874054 139.57592773 221.15698242 C148.59644011 246.05214126 157.51974725 270.9815882 166.40643311 295.92481995 C168.30059682 301.24053661 170.1978392 306.55511205 172.10359478 311.86668301 C173.04191192 314.48201689 173.97914595 317.09773843 174.91636848 319.71346474 C175.5867953 321.58299476 176.25889151 323.45192585 176.93101501 325.32084656 C177.332845 326.44255753 177.73467499 327.56426849 178.14868164 328.7199707 C178.68580528 330.21570366 178.68580528 330.21570366 179.23377991 331.74165344 C180 334 180 334 180 335 C161.52 335 143.04 335 124 335 C120.78550158 327.28520378 117.73650448 319.69569268 115.0390625 311.8125 C114.68540619 310.78930664 114.33174988 309.76611328 113.96737671 308.71191406 C112.84967745 305.47582884 111.73716473 302.23799094 110.625 299 C109.52262714 295.80214746 108.41917878 292.60466752 107.31561279 289.40722656 C106.59372814 287.3144367 105.87272968 285.22134092 105.15264893 283.12792969 C103.42054287 278.09559259 101.67614565 273.06824393 99.90136719 268.05078125 C99.57365326 267.12297852 99.24593933 266.19517578 98.90829468 265.23925781 C98.29158689 263.49674989 97.67227468 261.75516083 97.04995728 260.01464844 C95 254.22030145 95 254.22030145 95 252 C52.1 252 9.2 252 -35 252 C-35.99 255.63 -36.98 259.26 -38 263 C-38.73762591 265.3055058 -39.49995949 267.60338595 -40.29663086 269.88916016 C-40.72395004 271.12058746 -41.15126923 272.35201477 -41.59153748 273.62075806 C-42.04911327 274.92692715 -42.50688685 276.23302698 -42.96484375 277.5390625 C-43.44443477 278.91418053 -43.92380562 280.28937536 -44.40296936 281.66464233 C-45.40154757 284.52793657 -46.40279684 287.39027822 -47.40600586 290.25195312 C-48.68308819 293.89556467 -49.95333656 297.54151518 -51.22157955 301.18821144 C-52.20801712 304.02211082 -53.19812556 306.85471727 -54.18930244 309.68696213 C-54.65883048 311.03001134 -55.12724713 312.3734497 -55.59446526 313.71730423 C-56.2505773 315.60271265 -56.91219517 317.48620226 -57.57397461 319.36962891 C-57.94687119 320.43565338 -58.31976776 321.50167786 -58.70396423 322.6000061 C-60.30486166 326.79976788 -62.17459525 330.8928393 -64 335 C-82.48 335 -100.96 335 -120 335 C-119.16738359 330.00430155 -117.96099767 325.72834167 -116.2109375 321.0390625 C-115.92014816 320.2460524 -115.62935883 319.4530423 -115.32975769 318.63600159 C-114.68967734 316.89172191 -114.04727339 315.14829359 -113.40286255 313.40560913 C-111.58654946 308.49205647 -109.7887449 303.57172119 -107.98828125 298.65234375 C-107.59533371 297.5800502 -107.20238617 296.50775665 -106.79753113 295.40296936 C-101.9069076 282.04250475 -97.10871112 268.6488514 -92.30495071 255.25698471 C-90.07194735 249.03277853 -87.83672185 242.8093697 -85.6015625 236.5859375 C-85.35926722 235.91125364 -85.11697193 235.23656979 -84.86733437 234.54144096 C-80.40813992 222.12548375 -75.92919641 209.71673566 -71.4375 197.3125 C-64.96692417 179.44190894 -58.50987594 161.56647238 -52.0625 143.6875 C-51.71141489 142.71393555 -51.71141489 142.71393555 -51.35323715 141.72070312 C-45.18132877 124.60561015 -39.01337173 107.48909554 -32.85089111 90.37060547 C-32.12059046 88.34194306 -31.39024424 86.31329706 -30.65985107 84.28466797 C-26.87294614 73.76669567 -23.08829667 63.24792198 -19.31008911 52.7268219 C-17.66592885 48.14886055 -16.02069725 43.57128457 -14.37536621 38.9937439 C-13.59577563 36.82387277 -12.81670557 34.65381454 -12.03820801 32.48355103 C-10.95777804 29.47163225 -9.87554715 26.46036586 -8.79296875 23.44921875 C-8.48225937 22.58154877 -8.17154999 21.71387878 -7.85142517 20.81991577 C-5.3369273 13.83464629 -2.66719629 6.93471036 0 0 Z " fill="#004A8E" transform="translate(328,322)"/>
<path d="M0 0 C1.14816193 -0.00101212 1.14816193 -0.00101212 2.31951904 -0.00204468 C13.37308436 0.01346981 23.89492455 0.34272167 34.625 3.25 C35.27452637 3.42160645 35.92405273 3.59321289 36.59326172 3.77001953 C47.02419897 6.58057065 56.88909774 10.59896778 66.625 15.25 C67.26324707 15.55276855 67.90149414 15.85553711 68.55908203 16.16748047 C76.01934526 19.7634073 82.82490695 23.85685849 89.375 28.9375 C90.25212646 29.61474121 90.25212646 29.61474121 91.14697266 30.30566406 C94.4286865 32.95317869 97.03085831 35.3118796 98.625 39.25 C98.08210073 54.30640631 91.57107496 71.06009062 84.625 84.25 C79.7451983 84.10212722 77.83029706 81.65166493 74.6796875 78.33203125 C54.72299576 58.10975616 29.74590863 46.95836894 1.4375 46.75 C-13.18612721 46.85820866 -26.94083641 48.57138631 -38.1796875 58.91015625 C-46.64974858 68.15980006 -48.90721088 79.01757453 -48.62109375 91.30078125 C-47.92266234 102.50894246 -43.36162182 109.57956946 -35.4375 117.25 C-31.72150841 120.38680217 -27.82841597 122.83091799 -23.5390625 125.08984375 C-22.55724251 125.60912697 -22.55724251 125.60912697 -21.55558777 126.13890076 C-15.11748674 129.48203665 -8.50136503 132.28657285 -1.77011108 134.97885132 C0.39396932 135.84511136 2.5532245 136.72258214 4.71166992 137.6027832 C7.77876714 138.8527866 10.84714675 140.09953416 13.91699219 141.34277344 C91.65867779 172.83149049 91.65867779 172.83149049 106.625 204.25 C116.27621562 227.75181512 116.66991105 253.8609605 107.29882812 277.59619141 C95.87084742 304.51413915 73.09784514 322.42731088 46.625 333.25 C10.99020508 347.22751245 -29.81582724 343.1442829 -64.51196289 328.33129883 C-81.47643451 320.81853855 -102.75173238 311.18490144 -113.375 295.25 C-113.09899219 290.01839743 -111.54852178 285.93606799 -109.125 281.375 C-108.78726563 280.71951172 -108.44953125 280.06402344 -108.1015625 279.38867188 C-107.32572353 277.88717932 -106.54475125 276.38833252 -105.75976562 274.89160156 C-104.14737326 271.81577552 -102.55008089 268.73230547 -100.953125 265.6484375 C-97.77134043 259.50990445 -94.57685199 253.37808668 -91.375 247.25 C-87.2501096 249.13180915 -84.58420487 251.94185264 -81.5 255.1875 C-61.12741124 276.00561257 -33.17904316 292.96226632 -3.25976562 293.49121094 C14.95553942 293.56205698 31.47673622 290.53720666 45.625 278.25 C51.07502865 272.58087472 54.97798684 266.6477052 57.625 259.25 C58.0375 258.13625 58.45 257.0225 58.875 255.875 C61.40465037 243.64835653 58.94053359 231.78231686 52.15234375 221.359375 C45.73043481 212.49024244 36.35590103 206.62790396 26.5 202.25 C25.49283936 201.79415527 24.48567871 201.33831055 23.44799805 200.86865234 C12.76288741 196.13560812 1.82974887 192.05465749 -9.0949707 187.91549683 C-20.35280829 183.64414559 -31.50224551 179.21784558 -42.5 174.3125 C-43.62301514 173.81766113 -44.74603027 173.32282227 -45.90307617 172.81298828 C-69.86776974 161.94020192 -89.25575662 145.71304337 -98.72265625 120.6875 C-106.86175765 95.48254083 -101.79788081 69.72757633 -90.1875 46.5625 C-77.45566665 23.90939254 -56.41588236 10.36096242 -31.9453125 3.25390625 C-21.292221 0.47772654 -10.94907842 0.00862086 0 0 Z " fill="#004A8F" transform="translate(713.375,319.75)"/>
<path d="M0 0 C17.49 0 34.98 0 53 0 C53 111.21 53 222.42 53 337 C35.51 337 18.02 337 0 337 C0 225.79 0 114.58 0 0 Z " fill="#004A8E" transform="translate(520,322)"/>
<path d="M0 0 C0.66 0 1.32 0 2 0 C2.18997559 0.58040039 2.37995117 1.16080078 2.57568359 1.75878906 C7.42918057 16.54683268 12.5266249 31.23312067 17.79847717 45.87680054 C19.68875211 51.12856056 21.56864303 56.38398906 23.4453125 61.640625 C23.74764801 62.48737793 24.04998352 63.33413086 24.36148071 64.20654297 C25.93742787 68.62107539 27.512352 73.03597115 29.08642578 77.45117188 C32.11550475 85.94417927 35.15264535 94.43401649 38.22013855 102.91323853 C39.62475567 106.79727905 41.02478927 110.68296453 42.42446899 114.56878662 C43.09630396 116.42984741 43.77041411 118.29008853 44.4468689 120.1494751 C45.38565407 122.73044113 46.31668021 125.31408476 47.24609375 127.8984375 C47.52656555 128.6631134 47.80703735 129.42778931 48.0960083 130.21563721 C49.34486102 133.71093038 50 136.2418788 50 140 C17.66 140 -14.68 140 -48 140 C-46.87517201 133.25103206 -46.87517201 133.25103206 -45.61157227 129.73779297 C-45.32870361 128.94309601 -45.04583496 128.14839905 -44.75439453 127.32962036 C-44.4448584 126.47576752 -44.13532227 125.62191467 -43.81640625 124.7421875 C-43.48938721 123.82654022 -43.16236816 122.91089294 -42.82543945 121.96749878 C-42.11497135 119.97917253 -41.40233217 117.99162102 -40.68777466 116.00476074 C-38.74954036 110.61389055 -36.82822455 105.21699681 -34.90625 99.8203125 C-34.50467178 98.69367188 -34.10309357 97.56703125 -33.68934631 96.40625 C-29.23278206 83.88214472 -24.89528657 71.31734353 -20.5625 58.75 C-15.04692965 42.76145489 -9.48803506 26.79299822 -3.75 10.8828125 C-2.44807936 7.27133889 -1.18809515 3.65091738 0 0 Z " fill="#FAFAFB" transform="translate(357,388)"/>
<path d="M0 0 C0.66 0.33 1.32 0.66 2 1 C-3.94 6.445 -3.94 6.445 -10 12 C-10 9 -10 9 -8.57421875 7.24609375 C-7.95160156 6.64925781 -7.32898438 6.05242187 -6.6875 5.4375 C-6.07261719 4.83808594 -5.45773437 4.23867188 -4.82421875 3.62109375 C-3 2 -3 2 0 0 Z " fill="#07317E" transform="translate(645,341)"/>
<path d="M0 0 C0.66 0.33 1.32 0.66 2 1 C1.731875 1.495 1.46375 1.99 1.1875 2.5 C-0.43875493 5.9236946 -1.69515171 9.44132285 -3 13 C-4.23593891 9.29218328 -3.5678132 8.32489747 -2.0625 4.8125 C-1.68222656 3.91144531 -1.30195313 3.01039063 -0.91015625 2.08203125 C-0.60980469 1.39496094 -0.30945313 0.70789063 0 0 Z " fill="#08317F" transform="translate(236,578)"/>
<path d="M0 0 C0.66 0.33 1.32 0.66 2 1 C2 1.66 2 2.32 2 3 C1.34 3 0.68 3 0 3 C-0.99 6.3 -1.98 9.6 -3 13 C-4.23593891 9.29218328 -3.5678132 8.32489747 -2.0625 4.8125 C-1.68222656 3.91144531 -1.30195313 3.01039063 -0.91015625 2.08203125 C-0.60980469 1.39496094 -0.30945313 0.70789063 0 0 Z " fill="#052E7C" transform="translate(288,434)"/>
<path d="M0 0 C1.74364165 3.4872833 0.08197968 6.74441629 -1.0625 10.3125 C-1.371875 11.199375 -1.68125 12.08625 -2 13 C-2.33 13 -2.66 13 -3 13 C-2.88490339 11.58249437 -2.75746342 10.16598831 -2.625 8.75 C-2.55539062 7.96109375 -2.48578125 7.1721875 -2.4140625 6.359375 C-1.98492887 3.914123 -1.21399362 2.15163097 0 0 Z " fill="#0A327E" transform="translate(617,382)"/>
<path d="M0 0 C0.66 1.32 1.32 2.64 2 4 C0.68 5.32 -0.64 6.64 -2 8 C-2.33 7.34 -2.66 6.68 -3 6 C-2.06553465 3.96855359 -1.06775224 1.96466413 0 0 Z " fill="#012F7C" transform="translate(622,567)"/>
</svg>
